<svg viewBox="0 0 520 300" xmlns="http://www.w3.org/2000/svg" role="img" aria-label="Capybara under construction">
  <defs>
    <linearGradient id="vest" x1="0" x2="1">
      <stop offset="0" stop-color="#ffd166"></stop><stop offset="1" stop-color="#fca311"></stop>
    </linearGradient>
    <linearGradient id="hat" x1="0" x2="1">
      <stop offset="0" stop-color="#ffde59"></stop><stop offset="1" stop-color="#ffbd2b"></stop>
    </linearGradient>
    <linearGradient id="sign" x1="0" x2="1">
      <stop offset="0" stop-color="#e53e3e"></stop><stop offset="1" stop-color="#b91c1c"></stop>
    </linearGradient>
    <filter id="shadow" x="-20%" y="-20%" width="140%" height="140%">
      <feDropShadow dx="0" dy="6" stdDeviation="6" flood-color="#000" flood-opacity=".35"></feDropShadow>
    </filter>
  </defs>

  <ellipse cx="260" cy="250" rx="220" ry="28" fill="#0b1328" opacity=".6"></ellipse>

  <g filter="url(#shadow)">
    <path d="M130 160c0-55 55-95 135-95s135 40 135 95c0 55-55 80-135 80s-135-25-135-80z" fill="#7a6148"></path>
    <ellipse cx="362" cy="92" rx="18" ry="14" fill="#5f4a39"></ellipse>
    <circle cx="360" cy="120" r="36" fill="#7a6148"></circle>
    <circle cx="345" cy="118" r="5" fill="#1f2937"></circle>
    <path d="M364 132 q 10 10 0 16" stroke="#1f2937" stroke-width="3" fill="none" stroke-linecap="round"></path>
    <ellipse cx="372" cy="134" rx="10" ry="7" fill="#5f4a39"></ellipse>
  </g>

  <path d="M175 98 h70 v120 h-70z" fill="url(#vest)"></path>
  <rect x="190" y="98" width="8" height="120" fill="#fff" opacity=".85"></rect>
  <rect x="222" y="98" width="8" height="120" fill="#fff" opacity=".85"></rect>

  <g transform="translate(330,78)">
    <path d="M0 0 c20-18 64-18 84 0 v14 h-84z" fill="url(#hat)"></path>
    <rect x="8" y="10" width="68" height="8" rx="2" fill="#e0a100"></rect>
  </g>

  <g transform="translate(405,70)">
    <path d="M0 0 h70 v40 h-40 l-14 12 2-12 h-18z" fill="#0b1020" stroke="#334155"></path>
    <text x="8" y="26" fill="#94a3b8" font-family="system-ui,Segoe UI,Roboto" font-size="14">*sigh*</text>
  </g>

  <g transform="translate(60,128)">
    <rect x="0" y="0" width="110" height="70" rx="8" fill="url(#sign)" stroke="#7f1d1d" stroke-width="3"></rect>
    <text x="55" y="28" text-anchor="middle" fill="#fff" font-weight="700" font-family="system-ui,Segoe UI,Roboto" font-size="16">UNDER</text>
    <text x="55" y="52" text-anchor="middle" fill="#fff" font-weight="700" font-family="system-ui,Segoe UI,Roboto" font-size="16">CONSTRUCTION</text>
    <rect x="52" y="70" width="6" height="30" fill="#925e2a"></rect>
    <rect x="50" y="98" width="10" height="6" fill="#78350f"></rect>
  </g>
</svg>
