<svg xmlns="http://www.w3.org/2000/svg" width="360" height="320" viewBox="0 0 360 320" role="img" aria-labelledby="title desc">
  <title id="title">Byte$ the Capybara - 404 Mascot</title>
  <desc id="desc">A cute chibi capybara mascot holding a tiny laptop, with a 404 flag.</desc>
  <defs>
    <filter id="shadow" x="-20%" y="-20%" width="140%" height="140%"><feDropShadow dx="0" dy="2" stdDeviation="3" flood-opacity=".25"/></filter>
  </defs>

  <!-- ground ripple -->
  <ellipse cx="180" cy="300" rx="110" ry="12" fill="#0ea5e9" opacity=".10"/>

  <!-- tail stub -->
  <ellipse cx="270" cy="220" rx="12" ry="8" fill="#8f6a45"/>

  <!-- body -->
  <ellipse cx="210" cy="220" rx="85" ry="70" fill="#a77b52" filter="url(#shadow)"/>
  <ellipse cx="210" cy="220" rx="70" ry="58" fill="#b9895d"/>

  <!-- head (capybara has big blunt head) -->
  <ellipse cx="150" cy="150" rx="78" ry="58" fill="#a77b52" filter="url(#shadow)"/>
  <ellipse cx="150" cy="150" rx="66" ry="48" fill="#b9895d"/>

  <!-- ears -->
  <ellipse cx="108" cy="112" rx="10" ry="8" fill="#8f6a45"/>
  <ellipse cx="182" cy="112" rx="10" ry="8" fill="#8f6a45"/>

  <!-- eyes -->
  <circle cx="132" cy="148" r="6" fill="#0b1020"/>
  <circle cx="168" cy="148" r="6" fill="#0b1020"/>

  <!-- snout and nose -->
  <ellipse cx="150" cy="162" rx="26" ry="16" fill="#d9b79b"/>
  <ellipse cx="150" cy="160" rx="4.5" ry="3.5" fill="#0b1020"/>

  <!-- mouth -->
  <path d="M138 170c6 6 18 6 24 0" stroke="#0b1020" stroke-width="2" fill="none" stroke-linecap="round"/>

  <!-- legs -->
  <rect x="156" y="270" width="18" height="18" rx="6" fill="#8f6a45"/>
  <rect x="234" y="270" width="18" height="18" rx="6" fill="#8f6a45"/>

  <!-- laptop -->
  <rect x="144" y="194" width="90" height="56" rx="8" fill="#0f172a"/>
  <rect x="144" y="194" width="90" height="56" rx="8" fill="#38bdf8" opacity=".12"/>
  <rect x="136" y="246" width="106" height="10" rx="3" fill="#0f172a"/>
  <text x="189" y="223" text-anchor="middle" font-family="ui-monospace, SFMono-Regular, Menlo, Consolas, 'Liberation Mono', monospace" font-size="16" fill="#38bdf8">BAY$_</text>

  <!-- 404 flag -->
  <path d="M280 120v66" stroke="#0b1020" stroke-width="4"/>
  <path d="M282 122l56 10-20 14 20 12-56 6z" fill="#38bdf8"/>
  <text x="306" y="154" text-anchor="middle" font-family="system-ui,Segoe UI,Roboto" font-size="18" fill="#0b1020" font-weight="700">404</text>
</svg>
